<svg id="Capa_1" enable-background="new 0 0 512 512" height="512" viewBox="0 0 512 512" width="512" xmlns="http://www.w3.org/2000/svg"><g><path d="m454 238.833h-89.667v-84.667h69.667z" fill="#96e8ff"/><g><path d="m460.33 255.99h-50.1c-26.87 0-48.73-21.86-48.73-48.73l30-71.65h19.2c22.15 0 41.536 14.975 47.143 36.416l17.002 65.179c1.172 4.496.195 9.281-2.645 12.957-2.841 3.675-7.224 5.828-11.87 5.828zm-68.83-90.381-10 70.38 59.415-10-12.1-46.384c-2.153-8.237-9.604-13.996-18.115-13.996z" fill="#12254c"/></g><g><path d="m512 286.219v-10.74c0-27.333-22.157-49.49-49.49-49.49h-52.28c-10.344 0-18.73-8.386-18.73-18.73v-71.65h-90.25v225.86c0 8.284 6.716 15 15 15h180.75c8.284 0 15-6.716 15-15v-45.25l-28.5-17.72z" fill="#f91446"/></g><g><path d="m316.25 376.468h-267.276c-27.004 0-48.974-21.97-48.974-48.974v-196.51c0-30.68 24.96-55.641 55.641-55.641h219.969c30.681 0 55.641 24.96 55.641 55.641v230.484c-.001 8.284-6.717 15-15.001 15z" fill="#27488f"/></g><path d="m275.609 75.343h-110.318v301.125h150.959c8.284 0 15-6.716 15-15v-230.484c0-30.68-24.96-55.641-55.641-55.641z" fill="#1b3b6b"/><g><path d="m512 286.219v30h-75.25c-8.28 0-15-6.72-15-15 0-8.29 6.72-15 15-15z" fill="#12254c"/></g><g><circle cx="105.438" cy="376.469" fill="#c8c8e7" r="45.188"/><path d="m105.438 436.657c-33.188 0-60.188-27-60.188-60.188s27-60.188 60.188-60.188 60.188 27 60.188 60.188-27.001 60.188-60.188 60.188zm0-90.375c-16.646 0-30.188 13.542-30.188 30.188s13.542 30.188 30.188 30.188 30.188-13.542 30.188-30.188-13.543-30.188-30.188-30.188z" fill="#1b3b6b"/></g><g><circle cx="361.438" cy="376.469" fill="#b4b4d9" r="45.188"/><path d="m361.438 436.657c-33.188 0-60.188-27-60.188-60.188s27-60.188 60.188-60.188 60.188 27 60.188 60.188-27.001 60.188-60.188 60.188zm0-90.375c-16.646 0-30.188 13.542-30.188 30.188s13.542 30.188 30.188 30.188 30.188-13.542 30.188-30.188-13.543-30.188-30.188-30.188z" fill="#12254c"/></g><g><path d="m225.875 195.76h-120.5c-8.284 0-15-6.716-15-15s6.716-15 15-15h120.5c8.284 0 15 6.716 15 15s-6.716 15-15 15z" fill="#1b3b6b"/></g><g><path d="m225.875 255.968h-120.5c-8.284 0-15-6.716-15-15s6.716-15 15-15h120.5c8.284 0 15 6.716 15 15s-6.716 15-15 15z" fill="#1b3b6b"/></g><g fill="#12254c"><path d="m165.291 255.968h60.584c8.284 0 15-6.716 15-15s-6.716-15-15-15h-60.584z"/><path d="m165.291 195.76h60.584c8.284 0 15-6.716 15-15s-6.716-15-15-15h-60.584z"/></g></g></svg>