<svg height="512pt" viewBox="-1 0 512 512" width="512pt" xmlns="http://www.w3.org/2000/svg"><path d="m254.988281 390c-3.15625 0-6.339843-.992188-9.050781-3.046875l-110.9375-84.128906-110.9375 84.128906c-6.597656 5.003906-16.007812 3.710937-21.015625-2.890625-5.003906-6.601562-3.710937-16.007812 2.890625-21.015625l120-91c5.359375-4.0625 12.769531-4.0625 18.125 0l120 91c6.601562 5.007813 7.898438 14.414063 2.890625 21.015625-2.949219 3.890625-7.429687 5.9375-11.964844 5.9375zm0 0" fill="#e6f0f5"/><path d="m264.0625 363.046875-120-91c-2.675781-2.03125-5.871094-3.046875-9.0625-3.046875v33.824219l110.9375 84.128906c2.710938 2.054687 5.894531 3.046875 9.050781 3.046875 4.535157 0 9.015625-2.046875 11.964844-5.9375 5.003906-6.597656 3.710937-16.007812-2.890625-21.015625zm0 0" fill="#c8dce6"/><path d="m450 314.996094v-119.992188-.007812-59.996094c0-8.285156-6.714844-15-15-15s-15 6.714844-15 15v23.785156l-34.390625-34.390625c-2.714844-2.714843-6.464844-4.394531-10.609375-4.394531-8.285156 0-15 6.714844-15 15v119.996094.007812 119.992188.007812 59.996094c0 8.285156 6.714844 15 15 15h60c8.285156 0 15-6.714844 15-15v-119.996094zm-53.785156 60.003906 23.785156-23.785156v47.570312zm-6.214844-156.214844v-47.570312l23.789062 23.785156zm30 12.429688v47.570312l-23.785156-23.785156zm-6.210938 83.785156-23.789062 23.785156v-47.570312zm-23.789062 96.214844 8.789062 8.785156h-8.789062zm0 0" fill="#fab700"/><path d="m135 298.429688c-24.8125 0-45-20.1875-45-45 0-19.554688 12.539062-36.238282 30-42.429688v-76c0-8.285156 6.714844-15 15-15s15 6.714844 15 15v88.429688c0 8.285156-6.714844 15-15 15-8.269531 0-15 6.730468-15 15 0 8.269531 6.730469 15 15 15s15-6.730469 15-15c0-8.285157 6.714844-15 15-15s15 6.714843 15 15c0 24.8125-20.1875 45-45 45zm0 0" fill="#545c64"/><path d="m435 0h-60c-8.285156 0-15 6.714844-15 15v60.003906h90v-60.003906c0-8.285156-6.714844-15-15-15zm0 0" fill="#444d55"/><path d="m495 60h-420c-3.976562 0-7.792969 1.582031-10.605469 4.394531l-60 60c-4.289062 4.289063-5.574219 10.742188-3.253906 16.347657 2.324219 5.601562 7.792969 9.257812 13.859375 9.257812h480c8.285156 0 15-6.714844 15-15v-60c0-8.285156-6.714844-15-15-15zm-15 38.785156-8.785156-8.785156h8.785156zm-45-2.570312 23.789062 23.785156h-47.574218zm-60 17.570312-23.785156-23.785156h47.574218zm-323.785156 6.214844 23.785156-23.785156 23.789062 23.785156zm83.785156-6.214844-23.785156-23.785156h47.574218zm36.214844 6.214844 23.785156-23.785156 23.789062 23.785156zm83.785156-6.214844-23.785156-23.785156h47.574218zm60-17.570312 23.789062 23.785156h-47.574218zm0 0" fill="#ffe137"/><path d="m495 512h-180c-8.285156 0-15-6.714844-15-15v-62c0-8.285156 6.714844-15 15-15h180c8.285156 0 15 6.714844 15 15v62c0 8.285156-6.714844 15-15 15zm0 0" fill="#444d55"/><path d="m255 512h-240c-8.285156 0-15-6.714844-15-15v-122c0-8.285156 6.714844-15 15-15h240c8.285156 0 15 6.714844 15 15v122c0 8.285156-6.714844 15-15 15zm0 0" fill="#ff3746"/><path d="m255 360h-120v152h120c8.285156 0 15-6.714844 15-15v-122c0-8.285156-6.714844-15-15-15zm0 0" fill="#dc1e28"/><path d="m195 360h30v152h-30zm0 0" fill="#be232d"/><path d="m120 360h30v152h-30zm0 0" fill="#dc1e28"/><path d="m45 360h30v152h-30zm0 0" fill="#dc1e28"/><path d="m135 360h15v152h-15zm0 0" fill="#be232d"/><path d="m495 60h-240v30h23.789062l-23.789062 23.785156v36.214844h240c8.285156 0 15-6.714844 15-15v-60c0-8.285156-6.714844-15-15-15zm-203.785156 60 23.785156-23.785156 23.789062 23.785156zm83.785156-6.214844-23.785156-23.785156h47.574218zm36.214844 6.214844 23.785156-23.785156 23.789062 23.785156zm68.785156-21.214844-8.785156-8.785156h8.785156zm0 0" fill="#fac30f"/></svg>