<svg id="Capa_1" enable-background="new 0 0 511.998 511.998" height="512" viewBox="0 0 511.998 511.998" width="512" xmlns="http://www.w3.org/2000/svg"><g><g><path d="m217.428 87.681c-8.546 0-16.58 3.328-22.621 9.37l-16.125 16.125c-.644.643-1.64.767-2.422.305l-19.717-11.684c-11.565-6.853-26.303-5.707-36.672 2.851-11.485 9.481-14.898 25.985-8.116 39.243l5.144 10.054c.447.873.198 1.928-.593 2.51l-3.955 2.911c-.559.412-1.305.5-1.945.234l-26.805-11.149c-6.796-2.826-14.421-3.217-21.47-1.104l-39.328 11.791c-13.639 4.089-22.803 16.404-22.803 30.643v7.421c0 12.647 7.472 24.129 19.036 29.251l101.022 44.739c.529.234.929.687 1.098 1.24l18.183 59.813c.083.272.106.565.067.849l-10.216 74.416c-2.035 14.825 6.308 28.906 20.29 34.24l69.031 26.338 20-51.85v-277.42l-20-51.137z" fill="#65b1fc"/><path d="m505.91 185.383c5.451-7.521 7.362-17.021 5.245-26.065-2.118-9.043-8.048-16.708-16.271-21.027l-151.89-79.799-20 57.595v270.673l20 52.226 83.445 7.834c8.267.771 16.398-1.644 22.899-6.811l34.548-27.468c7.38-5.867 11.778-14.638 12.067-24.062.289-9.425-3.565-18.447-10.573-24.756l-8.94-8.047c-.487-.438-.727-1.088-.642-1.737l6.641-50.827c1.383-10.584-2.576-21.113-10.591-28.165l-17.477-15.374c-.775-.682-.903-1.826-.297-2.663z" fill="#e20059"/><path d="m304.925 38.492c-7.183-3.773-15.451-4.68-23.282-2.549l-20.116 5.477c-13.89 3.779-23.59 16.473-23.59 30.868v13.402c0 1.098-.893 1.991-1.991 1.991h-17.434v380.406l.509.194c2.705 1.032 5.54 1.693 8.429 1.964l72.723 6.799c.991.093 1.978.139 2.96.139 12.282 0 23.676-7.121 28.97-18.384l8.783-18.69c.355-.758 1.156-1.219 1.988-1.135l.121.011v-380.493z" fill="#f2f7fe"/></g><path d="m281.643 35.943-.891.242v439.044l19.419 1.815c.991.093 1.978.139 2.96.139 12.282 0 23.676-7.121 28.97-18.384l8.783-18.69c.355-.758 1.156-1.219 1.988-1.135l.121.011v-380.493l-38.068-20c-7.183-3.773-15.45-4.68-23.282-2.549z" fill="#e0ecfd"/></g></svg>