<svg id="Capa_1" enable-background="new 0 0 512 512" height="512" viewBox="0 0 512 512" width="512" xmlns="http://www.w3.org/2000/svg"><g><g><g><path d="m159.643 132-4.191-57-42.452-24-46.452 24-10.074 137 4.526 15-6.732 15-3.228 43.9c-.306 4.158 1.133 8.256 3.971 11.31 2.838 3.055 6.819 4.79 10.989 4.79h90c4.169 0 8.15-1.735 10.989-4.79 2.838-3.054 4.276-7.151 3.971-11.31l-9.11-123.9-18.85-15z" fill="#f1f1f4"/><g><path d="m170.96 285.9-9.11-123.9-18.85-15 16.643-15-4.191-57-42.452-24-2 1.033v249.967h45c4.169 0 8.15-1.735 10.989-4.79 2.838-3.054 4.276-7.151 3.971-11.31z" fill="#e2dff4"/></g><path d="m126 132c-8.284 0-15 6.716-15 15s6.716 15 15 15h35.849l-2.206-30z" fill="#bebcdd"/><path d="m101 227c0-8.284-6.716-15-15-15h-29.526l-2.206 30h31.732c8.284 0 15-6.716 15-15z" fill="#e2dff4"/></g><path d="m150.96 13.9c-.577-7.837-7.103-13.9-14.96-13.9h-50c-7.858 0-14.383 6.063-14.96 13.9l-4.492 61.1h88.904z" fill="#ffb454"/><g><path d="m150.96 13.9c-.577-7.837-7.103-13.9-14.96-13.9h-25v75h44.452z" fill="#ff8659"/></g></g><g><g><g><g><g><g><g><g><g><path d="m376 348.075h-15.686c-2.096-6.278-4.75-12.319-7.921-18.075h-192.786c-3.171 5.755-5.825 11.796-7.921 18.075h-15.686c-8.284 0-15 6.716-15 15v40c0 8.284 6.716 15 15 15h15.686c4.662 13.965 12.061 26.769 21.856 37.822l-7.853 13.601c-4.144 7.174-1.685 16.349 5.49 20.49l34.641 20c7.174 4.142 16.348 1.684 20.49-5.49l7.851-13.598c7.163 1.446 14.47 2.176 21.838 2.176 7.369 0 14.676-.729 21.838-2.176l7.851 13.598c4.142 7.174 13.316 9.632 20.49 5.49l34.641-20c7.175-4.142 9.633-13.315 5.49-20.49l-7.853-13.601c9.796-11.053 17.194-23.856 21.856-37.822h15.688c8.284 0 15-6.716 15-15v-40c0-8.285-6.716-15-15-15zm-120 75.001c-22.091 0-40-17.909-40-40s17.909-40 40-40 40 17.909 40 40-17.909 40-40 40z" fill="#e2dff4"/></g><g><path d="m376 348.075h-15.686c-2.096-6.278-4.75-12.319-7.921-18.075h-96.393v13.076c22.091 0 40 17.909 40 40s-17.909 40-40 40v69.999c7.369 0 14.676-.729 21.838-2.176l7.851 13.598c4.142 7.174 13.316 9.632 20.49 5.49l34.641-20c7.175-4.142 9.633-13.315 5.49-20.49l-7.853-13.601c9.796-11.053 17.194-23.856 21.856-37.822h15.687c8.284 0 15-6.716 15-15v-40c0-8.284-6.716-14.999-15-14.999z" fill="#bebcdd"/></g><g><path d="m311 383.076c0 30.327-24.673 55-55 55s-55-24.673-55-55 24.673-55 55-55 55 24.673 55 55zm-80 0c0 13.785 11.215 25 25 25s25-11.215 25-25-11.215-25-25-25-25 11.215-25 25z" fill="#f1f1f4"/></g><g><path d="m256 328.076v30c13.785 0 25 11.215 25 25s-11.215 25-25 25v30c30.327 0 55-24.673 55-55s-24.673-55-55-55z" fill="#e2dff4"/></g></g></g></g></g></g></g></g></g><g><path d="m496 363.076h-480c-8.284 0-15-6.716-15-15v-61.076c0-8.284 6.716-15 15-15h205v-155c0-4.922 2.415-9.531 6.462-12.333l86.667-60c4.587-3.177 10.559-3.543 15.5-.954 4.942 2.59 8.039 7.708 8.039 13.287v31.371l63.129-43.704c4.587-3.175 10.559-3.543 15.5-.954 4.942 2.59 8.039 7.708 8.039 13.287v31.371l63.128-43.704c4.587-3.177 10.559-3.543 15.5-.954 4.939 2.59 8.036 7.708 8.036 13.287v291.076c0 8.284-6.716 15-15 15z" fill="#ff6b6b"/></g><g><path d="m502.961 43.713c-4.941-2.589-10.913-2.223-15.5.954l-63.128 43.704v-31.371c0-5.579-3.097-10.697-8.039-13.287-4.94-2.589-10.913-2.221-15.5.954l-34.794 24.089v294.32h130c8.284 0 15-6.716 15-15v-291.076c0-5.579-3.097-10.697-8.039-13.287z" fill="#ff405c"/></g><g><path d="m296 167h140v120h-140z" fill="#c8ffff"/><g><path d="m366 167h70v120h-70z" fill="#acceff"/></g><path d="m436 152h-140c-8.284 0-15 6.716-15 15v120c0 8.284 6.716 15 15 15h140c8.284 0 15-6.716 15-15v-120c0-8.284-6.716-15-15-15zm-15 60h-40v-30h40zm-70-30v30h-40v-30zm-40 60h40v30h-40zm70 30v-30h40v30z" fill="#ffb454"/><g><path d="m436 152h-70v150h70c8.284 0 15-6.716 15-15v-120c0-8.284-6.716-15-15-15zm-15 120h-40v-30h40zm0-60h-40v-30h40z" fill="#ff8659"/></g></g></g></svg>