<svg xmlns="http://www.w3.org/2000/svg" xmlns:xlink="http://www.w3.org/1999/xlink" viewBox="0 0 2200 2200" width="2200" height="2200">
  <defs>
    <style>
      @import url('https://fonts.googleapis.com/css2?family=Inter:wght@400;600;700;800;900&amp;display=swap');
      text { font-family: 'Inter', sans-serif; }
    </style>

    <!-- Icon: vision (013) -->
    <symbol id="icon-vision" viewBox="0 -118 512 512">
      <path d="m508.199219 127.644531c-1.148438-1.308593-28.652344-32.339843-73.191407-63.636719-59.585937-41.875-121.488281-64.007812-179.007812-64.007812s-119.417969 22.136719-179.003906 64.007812c-44.539063 31.300782-72.046875 62.332032-73.195313 63.636719-5.066406 5.757813-5.066406 14.378907 0 20.136719 1.148438 1.304688 28.65625 32.335938 73.195313 63.632812 59.585937 41.875 121.484375 64.007813 179.003906 64.007813s119.421875-22.132813 179.007812-64.007813c44.539063-31.296874 72.042969-62.328124 73.191407-63.632812 5.066406-5.757812 5.066406-14.382812 0-20.136719zm0 0" fill="#e1f1fa"/>
      <path d="m435.007812 211.414062c44.539063-31.296874 72.042969-62.328124 73.191407-63.636718 5.066406-5.753906 5.066406-14.378906 0-20.132813-1.148438-1.308593-28.652344-32.339843-73.191407-63.636719-59.585937-41.875-121.488281-64.007812-179.007812-64.007812v275.421875c57.519531 0 119.421875-22.132813 179.007812-64.007813zm0 0" fill="#cdebfc"/>
      <path d="m256 0c-75.933594 0-137.710938 61.777344-137.710938 137.710938 0 75.933593 61.777344 137.710937 137.710938 137.710937s137.710938-61.777344 137.710938-137.710937c0-75.933594-61.777344-137.710938-137.710938-137.710938zm0 0" fill="#06ccab"/>
      <path d="m393.710938 137.710938c0-75.933594-61.777344-137.710938-137.710938-137.710938v275.421875c75.933594 0 137.710938-61.777344 137.710938-137.710937zm0 0" fill="#1cadb5"/>
      <path d="m242.253906 184.457031c-4.042968 0-7.917968-1.605469-10.773437-4.464843l-35.523438-35.523438c-5.949219-5.949219-5.949219-15.597656 0-21.546875 5.949219-5.953125 15.597657-5.953125 21.550781 0l24.746094 24.746094 52.242188-52.238281c5.949218-5.953126 15.597656-5.953126 21.546875 0 5.953125 5.949218 5.953125 15.597656 0 21.546874l-63.011719 63.015626c-2.859375 2.859374-6.734375 4.464843-10.777344 4.464843zm0 0" fill="#1b3b6b"/>
      <path d="m294.496094 95.429688-38.496094 38.492187v43.101563l60.042969-60.046876c5.953125-5.949218 5.953125-15.597656 0-21.546874-5.949219-5.953126-15.597657-5.953126-21.546875 0zm0 0" fill="#001035"/>
    </symbol>

    <!-- Icon: target (008) -->
    <symbol id="icon-target" viewBox="0 0 512 512">
      <path d="m496.800781 240.800781h-22.074219c-3.597656-52.839843-25.882812-102.027343-63.691406-139.835937s-86.996094-60.09375-139.835937-63.691406v-22.074219c0-8.394531-6.804688-15.199219-15.199219-15.199219s-15.199219 6.804688-15.199219 15.199219v22.074219c-52.839843 3.597656-102.027343 25.882812-139.835937 63.691406s-60.09375 86.996094-63.691406 139.835937h-22.074219c-8.394531 0-15.199219 6.804688-15.199219 15.199219s6.804688 15.199219 15.199219 15.199219h22.074219c3.597656 52.839843 25.882812 102.027343 63.691406 139.835937s86.996094 60.09375 139.835937 63.691406v22.074219c0 8.394531 6.804688 15.199219 15.199219 15.199219s15.199219-6.804688 15.199219-15.199219v-22.074219c52.839843-3.597656 102.027343-25.882812 139.835937-63.691406s60.09375-86.996094 63.691406-139.835937h22.074219c8.394531 0 15.199219-6.804688 15.199219-15.199219s-6.804688-15.199219-15.199219-15.199219zm-225.601562 203.4375v-20.933593c0-8.394532-6.804688-15.203126-15.199219-15.203126s-15.199219 6.808594-15.199219 15.203126v20.933593c-92.039062-7.363281-165.671875-81-173.039062-173.039062h20.933593c8.394532 0 15.203126-6.804688 15.203126-15.199219s-6.808594-15.199219-15.203126-15.199219h-20.933593c7.363281-92.039062 81-165.671875 173.039062-173.039062v20.933593c0 8.394532 6.804688 15.203126 15.199219 15.203126s15.199219-6.808594 15.199219-15.203126v-20.933593c92.039062 7.363281 165.671875 81 173.039062 173.039062h-20.933593c-8.394532 0-15.203126 6.804688-15.203126 15.199219s6.808594 15.199219 15.203126 15.199219h20.933593c-7.367187 92.039062-81 165.671875-173.039062 173.039062zm0 0" fill="#ff5b5b"/>
      <path d="m496.800781 240.800781h-22.074219c-3.597656-52.839843-25.882812-102.027343-63.691406-139.835937s-86.996094-60.09375-139.835937-63.691406v-22.074219c0-8.394531-6.804688-15.19531275-15.195313-15.199219v103.898438c8.390625-.003907 15.195313-6.808594 15.195313-15.203126v-20.933593c92.039062 7.363281 165.671875 81 173.039062 173.039062h-20.933593c-8.394532 0-15.203126 6.804688-15.203126 15.199219s6.808594 15.199219 15.203126 15.199219h20.933593c-7.363281 92.039062-81 165.671875-173.039062 173.039062v-20.933593c0-8.394532-6.804688-15.199219-15.195313-15.203126v103.898438c8.390625-.003906 15.195313-6.804688 15.195313-15.199219v-22.074219c52.839843-3.597656 102.027343-25.882812 139.835937-63.691406s60.09375-86.996094 63.691406-139.835937h22.074219c8.394531 0 15.199219-6.804688 15.199219-15.199219s-6.804688-15.199219-15.199219-15.199219zm0 0" fill="#ff193d"/>
      <path d="m256 377.441406c-66.964844 0-121.441406-54.476562-121.441406-121.441406s54.476562-121.441406 121.441406-121.441406 121.441406 54.476562 121.441406 121.441406-54.476562 121.441406-121.441406 121.441406zm0 0" fill="#fff261"/>
      <path d="m256.003906 134.558594v242.882812c66.960938-.003906 121.4375-54.480468 121.4375-121.441406s-54.476562-121.441406-121.4375-121.441406zm0 0" fill="#fdbf00"/>
      <path d="m244.074219 298.53125c-3.890625 0-7.777344-1.484375-10.746094-4.453125l-30.816406-30.8125c-5.933594-5.9375-5.933594-15.5625 0-21.496094 5.9375-5.9375 15.5625-5.9375 21.496093 0l20.070313 20.066407 43.914063-43.917969c5.9375-5.933594 15.5625-5.933594 21.496093 0 5.9375 5.9375 5.9375 15.5625 0 21.496093l-54.664062 54.664063c-2.96875 2.96875-6.859375 4.453125-10.75 4.453125zm0 0" fill="#06ccab"/>
      <path d="m287.992188 217.917969-31.988282 31.988281v42.992188l53.484375-53.484376c5.9375-5.933593 5.9375-15.558593 0-21.496093-5.9375-5.933594-15.5625-5.933594-21.496093 0zm0 0" fill="#1cadb5"/>
    </symbol>

    <!-- Icon: loupe (010) -->
    <symbol id="icon-loupe" viewBox="0 0 512 512">
      <path d="m53.257812 512c-14.226562 0-27.601562-5.539062-37.660156-15.597656s-15.597656-23.433594-15.597656-37.660156c0-14.222657 5.539062-27.597657 15.597656-37.65625l220.261719-220.261719c5.84375-5.847657 15.324219-5.847657 21.171875 0l54.144531 54.144531c5.847657 5.847656 5.847657 15.328125 0 21.171875l-220.261719 220.261719c-10.058593 10.058594-23.429687 15.597656-37.65625 15.597656zm0 0" fill="#1b3b6b"/>
      <path d="m311.175781 254.972656-27.074219-27.078125-268.503906 268.503907v.003906c10.058594 10.058594 23.433594 15.597656 37.660156 15.597656 14.222657 0 27.597657-5.539062 37.65625-15.597656l220.261719-220.261719c5.847657-5.84375 5.847657-15.324219 0-21.167969zm0 0" fill="#001035"/>
      <path d="m323.179688 0c-104.117188 0-188.820313 84.703125-188.820313 188.820312 0 104.113282 84.707031 188.820313 188.820313 188.820313 104.117187 0 188.820312-84.707031 188.820312-188.820313 0-104.117187-84.703125-188.820312-188.820312-188.820312zm0 0" fill="#ff5b5b"/>
      <path d="m456.632812 55.363281-266.90625 266.90625c34.1875 34.191407 81.394532 55.371094 133.453126 55.371094 104.117187 0 188.820312-84.703125 188.820312-188.820313 0-52.058593-21.175781-99.265624-55.367188-133.457031zm0 0" fill="#ff193d"/>
      <path d="m323.179688 321.242188c-73.015626 0-132.421876-59.402344-132.421876-132.421876 0-73.019531 59.40625-132.421874 132.421876-132.421874 73.019531 0 132.425781 59.402343 132.425781 132.421874 0 73.019532-59.40625 132.421876-132.425781 132.421876zm0 0" fill="#e1f1fa"/>
      <path d="m416.769531 95.226562-187.183593 187.183594c23.976562 23.980469 57.085937 38.832032 93.59375 38.832032 73.019531 0 132.425781-59.402344 132.425781-132.421876 0-36.511718-14.855469-69.617187-38.835938-93.59375zm0 0" fill="#cdebfc"/>
      <path d="m312.171875 236.183594c-3.828125 0-7.660156-1.460938-10.582031-4.386719l-34.070313-34.066406c-5.84375-5.847657-5.84375-15.324219 0-21.171875 5.847657-5.84375 15.324219-5.84375 21.171875 0l23.480469 23.484375 49.847656-49.847657c5.847657-5.847656 15.324219-5.847656 21.171875 0 5.847656 5.847657 5.847656 15.324219 0 21.171876l-60.433594 60.433593c-2.921874 2.921875-6.753906 4.382813-10.585937 4.382813zm0 0" fill="#06ccab"/>
      <path d="m383.082031 150.085938c-5.847656-5.847657-15.324219-5.847657-21.171875 0l-71.015625 71.019531 10.582031 10.582031c2.925782 2.921875 6.753907 4.386719 10.585938 4.386719s7.664062-1.464844 10.585938-4.386719l60.433593-60.433594c5.847657-5.84375 5.847657-15.324218 0-21.167968zm0 0" fill="#1cadb5"/>
    </symbol>

    <!-- Icon: exam (023) -->
    <symbol id="icon-exam" viewBox="-70 0 512 512">
      <path d="m357.570312 512h-342.492187c-8.328125 0-15.078125-6.75-15.078125-15.078125v-386.816406c0-4 1.589844-7.832031 4.417969-10.660157l95.027343-95.027343c2.828126-2.828125 6.660157-4.417969 10.660157-4.417969h247.464843c8.328126 0 15.078126 6.75 15.078126 15.078125v481.84375c0 8.328125-6.75 15.078125-15.078126 15.078125zm0 0" fill="#e1f1fa"/>
      <path d="m357.570312 0h-171.246093v512h171.246093c8.328126 0 15.078126-6.75 15.078126-15.078125v-481.84375c0-8.328125-6.75-15.078125-15.078126-15.078125zm0 0" fill="#cdebfc"/>
      <path d="m281.820312 362.695312h-190.992187c-8.328125 0-15.078125-6.75-15.078125-15.078124 0-8.328126 6.75-15.078126 15.078125-15.078126h190.992187c8.328126 0 15.078126 6.75 15.078126 15.078126 0 8.328124-6.75 15.078124-15.078126 15.078124zm0 0" fill="#1b3b6b"/>
      <path d="m281.820312 332.539062h-95.496093v30.15625h95.496093c8.328126 0 15.078126-6.75 15.078126-15.078124 0-8.328126-6.75-15.078126-15.078126-15.078126zm0 0" fill="#001035"/>
      <path d="m216.777344 408.710938h-125.949219c-8.328125 0-15.078125-6.75-15.078125-15.078126 0-8.328124 6.75-15.078124 15.078125-15.078124h125.949219c8.324218 0 15.078125 6.75 15.078125 15.078124 0 8.328126-6.75 15.078126-15.078125 15.078126zm0 0" fill="#1b3b6b"/>
      <path d="m216.777344 378.554688h-30.453125v30.15625h30.453125c8.324218 0 15.078125-6.75 15.078125-15.078126 0-8.328124-6.75-15.078124-15.078125-15.078124zm0 0" fill="#001035"/>
      <path d="m129.226562 167.664062-52.101562 113.578126c-3.472656 7.570312-.148438 16.519531 7.417969 19.992187 2.039062.933594 4.175781 1.375 6.277343 1.375 5.714844 0 11.179688-3.261719 13.714844-8.792969l14.890625-32.460937h47.011719l14.890625 32.460937c2.535156 5.53125 8 8.792969 13.714844 8.792969 2.101562 0 4.238281-.441406 6.277343-1.375 7.570313-3.472656 10.890626-12.421875 7.417969-19.992187l-52.101562-113.578126c-2.457031-5.359374-7.8125-8.792968-13.703125-8.792968-5.894532 0-11.25 3.433594-13.707032 8.792968zm4.035157 63.535157 9.667969-21.082031 9.671874 21.082031zm0 0" fill="#06ccab"/>
      <path d="m110.105469 0c-4 0-7.832031 1.589844-10.660157 4.417969l-95.027343 95.027343c-2.828125 2.824219-4.417969 6.660157-4.417969 10.660157v15.074219h107.382812c9.832032 0 17.800782-7.96875 17.800782-17.800782v-107.378906zm0 0" fill="#a3d4ff"/>
      <path d="m281.820312 185.125h-10.636718v-10.636719c0-8.328125-6.75-15.078125-15.078125-15.078125s-15.078125 6.75-15.078125 15.078125v10.636719h-10.636719c-8.328125 0-15.078125 6.753906-15.078125 15.078125 0 8.328125 6.75 15.078125 15.078125 15.078125h10.636719v10.640625c0 8.324219 6.75 15.078125 15.078125 15.078125s15.078125-6.753906 15.078125-15.078125v-10.640625h10.636718c8.328126 0 15.078126-6.75 15.078126-15.078125 0-8.324219-6.75-15.078125-15.078126-15.078125zm0 0" fill="#ff193d"/>
    </symbol>

    <!-- Icon: message (003) -->
    <symbol id="icon-message" viewBox="1 -40 512 512">
      <path d="m470.109375.5h-428.21875c-23.097656 0-41.890625 18.789062-41.890625 41.890625v272.566406c0 23.097657 18.792969 41.890625 41.890625 41.890625h148.574219l52.59375 69.0625c3.078125 4.039063 7.863281 6.410156 12.945312 6.410156 5.078125 0 9.867188-2.371093 12.945313-6.410156l52.59375-69.0625h148.566406c23.097656 0 41.890625-18.792968 41.890625-41.890625v-272.566406c0-23.101563-18.792969-41.890625-41.890625-41.890625zm0 0" fill="#e1f1fa"/>
      <path d="m470.109375.5h-214.105469v431.824219c5.078125 0 9.867188-2.375 12.945313-6.414063l52.59375-69.0625h148.566406c23.097656 0 41.890625-18.792968 41.890625-41.890625v-272.566406c0-23.101563-18.792969-41.890625-41.890625-41.890625zm0 0" fill="#cdebfc"/>
      <path d="m235.34375 241.3125c-4.164062 0-8.328125-1.585938-11.503906-4.765625l-53.382813-53.378906c-6.351562-6.355469-6.351562-16.65625 0-23.011719 6.355469-6.355469 16.65625-6.355469 23.011719 0l41.875 41.875 83.191406-83.1875c6.351563-6.355469 16.65625-6.355469 23.007813 0 6.355469 6.355469 6.355469 16.65625 0 23.011719l-94.691407 94.691406c-3.179687 3.179687-7.34375 4.765625-11.507812 4.765625zm0 0" fill="#06ccab"/>
      <path d="m318.53125 118.84375-62.527344 62.527344v46.019531l85.539063-85.539063c6.351562-6.351562 6.351562-16.65625 0-23.007812-6.355469-6.355469-16.65625-6.355469-23.011719 0zm0 0" fill="#1cadb5"/>
    </symbol>

    <!-- Icon: flag (002) -->
    <symbol id="icon-flag" viewBox="-87 0 512 512">
      <path d="m269.753906 97.109375 64.808594-71.972656c3.980469-4.421875 4.984375-10.769531 2.566406-16.203125-2.421875-5.433594-7.808594-8.933594-13.757812-8.933594h-234.6875c-8.316406 0-15.058594 6.742188-15.058594 15.058594v164.101562c0 8.316406 6.742188 15.058594 15.058594 15.058594h234.6875c5.945312 0 11.335937-3.5 13.753906-8.933594 2.421875-5.433594 1.414062-11.78125-2.566406-16.203125zm0 0" fill="#ff193d"/>
      <path d="m88.683594 0h-73.625c-8.316406 0-15.058594 6.742188-15.058594 15.058594v481.882812c0 8.316406 6.742188 15.058594 15.058594 15.058594h73.625c8.316406 0 15.058594-6.742188 15.058594-15.058594v-481.882812c0-8.316406-6.742188-15.058594-15.058594-15.058594zm0 0" fill="#1b3b6b"/>
      <path d="m88.683594 0h-36.425782v512h36.425782c8.316406 0 15.058594-6.742188 15.058594-15.058594v-481.882812c0-8.316406-6.742188-15.058594-15.058594-15.058594zm0 0" fill="#001035"/>
    </symbol>

    <!-- Icon: rocket (005) -->
    <symbol id="icon-rocket" viewBox="0 0 512 512">
      <path d="m157.085938 266.195312c-.324219 0-.648438-.011718-.976563-.03125l-140.960937-8.800781c-5.363282-.332031-10.175782-3.398437-12.746094-8.113281-2.566406-4.714844-2.535156-10.421875.089844-15.109375.738281-1.320313 18.503906-32.644531 52.335937-59.964844 45.71875-36.914062 98.867187-48.886719 153.695313-34.621093 4.550781 1.183593 8.324218 4.355468 10.277343 8.632812s1.875 9.207031-.214843 13.417969l-47.503907 95.902343c-2.648437 5.34375-8.089843 8.6875-13.996093 8.6875zm0 0" fill="#ff5b5b"/>
      <path d="m270.722656 512c-2.570312 0-5.140625-.632812-7.472656-1.90625-4.714844-2.570312-7.78125-7.378906-8.117188-12.742188l-8.796874-140.960937c-.390626-6.277344 3.019531-12.179687 8.65625-14.972656l95.902343-47.507813c4.214844-2.085937 9.140625-2.164062 13.417969-.210937 4.28125 1.949219 7.449219 5.726562 8.632812 10.277343 14.269532 54.828126 2.296876 107.976563-34.621093 153.695313-27.316407 33.832031-58.644531 51.59375-59.964844 52.335937-2.371094 1.328126-5.003906 1.992188-7.636719 1.992188zm0 0" fill="#ff193d"/>
      <path d="m487.441406 126.058594-101-101c-4.046875-4.046875-9.984375-5.554688-15.472656-3.933594-67.613281 20-123.117188 51.367188-164.980469 93.226562-8.730469 8.734376-17.117187 18.199219-24.921875 28.128907-22.695312 28.855469-41.652344 62.972656-56.339844 101.40625-9.355468 24.496093-16.972656 50.738281-22.640624 77.996093-9.898438 47.613282-10.429688 81.738282-10.449219 83.167969-.050781 4.207031 1.597656 8.261719 4.574219 11.238281 2.929687 2.929688 6.90625 4.574219 11.046874 4.574219h.191407c1.433593-.015625 35.558593-.546875 83.167969-10.445312 27.257812-5.667969 53.5-13.285157 78-22.644531 38.429687-14.6875 72.546874-33.640626 101.394531-56.332032 9.9375-7.808594 19.402343-16.195312 28.136719-24.929687 41.863281-41.863281 73.230468-97.367188 93.226562-164.980469 1.625-5.488281.113281-11.425781-3.933594-15.472656zm0 0" fill="#e1f1fa"/>
      <path d="m201.289062 386.882812-75.671874-75.671874c-5.585938-5.585938-14.464844-6.121094-20.683594-1.246094-4.832032 3.789062-9.429688 7.859375-13.664063 12.09375-52.652343 52.652344-54.28125 134.234375-54.324219 137.679687-.054687 4.210938 1.59375 8.265625 4.574219 11.242188 2.929688 2.933593 6.902344 4.578125 11.042969 4.578125.066406 0 .132812 0 .199219-.003906 3.445312-.042969 85.03125-1.671876 137.679687-54.324219 4.234375-4.234375 8.304688-8.832031 12.09375-13.664063 4.875-6.21875 4.339844-15.097656-1.246094-20.683594zm0 0" fill="#fff261"/>
      <path d="m125.933594 240.761719-46.425782 46.429687c-2.929687 2.925782-4.578124 6.898438-4.578124 11.042969 0 4.140625 1.648437 8.113281 4.578124 11.042969l123.714844 123.714844c2.925782 2.929687 6.898438 4.574218 11.042969 4.574218s8.113281-1.644531 11.042969-4.574218l46.425781-46.425782zm0 0" fill="#1b3b6b"/>
      <path d="m328.601562 231.550781c-12.726562 0-24.695312-4.957031-33.695312-13.957031-18.578125-18.578125-18.578125-48.804688 0-67.386719 9-9 20.96875-13.957031 33.695312-13.957031 12.726563 0 24.695313 4.957031 33.695313 13.957031s13.957031 20.964844 13.957031 33.695313c0 12.726562-4.957031 24.691406-13.957031 33.691406s-20.96875 13.957031-33.695313 13.957031zm0 0" fill="#06ccab"/>
      <path d="m487.441406 126.058594-50.5-50.5-340.730468 340.730468c2.929687 2.929688 6.902343 4.574219 11.042968 4.574219h.195313c1.429687-.015625 35.554687-.546875 83.167969-10.445312 27.257812-5.667969 53.496093-13.285157 77.996093-22.644531 38.433594-14.6875 72.550781-33.640626 101.398438-56.332032 9.933593-7.808594 19.402343-16.195312 28.132812-24.929687 41.863281-41.863281 73.230469-97.367188 93.226563-164.980469 1.628906-5.488281.117187-11.425781-3.929688-15.472656zm0 0" fill="#cdebfc"/>
      <path d="m507.921875 4.574219-76.75 76.753906 60.203125 60.203125c20.164062-68.179688 21.09375-123.394531 21.121094-125.710938.054687-4.210937-1.59375-8.265624-4.574219-11.246093zm0 0" fill="#ff193d"/>
    </symbol>

    <!-- Icon: france -->
    <symbol id="icon-france" viewBox="0 0 512 512">
      <path d="m217.428 87.681c-8.546 0-16.58 3.328-22.621 9.37l-16.125 16.125c-.644.643-1.64.767-2.422.305l-19.717-11.684c-11.565-6.853-26.303-5.707-36.672 2.851-11.485 9.481-14.898 25.985-8.116 39.243l5.144 10.054c.447.873.198 1.928-.593 2.51l-3.955 2.911c-.559.412-1.305.5-1.945.234l-26.805-11.149c-6.796-2.826-14.421-3.217-21.47-1.104l-39.328 11.791c-13.639 4.089-22.803 16.404-22.803 30.643v7.421c0 12.647 7.472 24.129 19.036 29.251l101.022 44.739c.529.234.929.687 1.098 1.24l18.183 59.813c.083.272.106.565.067.849l-10.216 74.416c-2.035 14.825 6.308 28.906 20.29 34.24l69.031 26.338 20-51.85v-277.42l-20-51.137z" fill="#65b1fc"/>
      <path d="m505.91 185.383c5.451-7.521 7.362-17.021 5.245-26.065-2.118-9.043-8.048-16.708-16.271-21.027l-151.89-79.799-20 57.595v270.673l20 52.226 83.445 7.834c8.267.771 16.398-1.644 22.899-6.811l34.548-27.468c7.38-5.867 11.778-14.638 12.067-24.062.289-9.425-3.565-18.447-10.573-24.756l-8.94-8.047c-.487-.438-.727-1.088-.642-1.737l6.641-50.827c1.383-10.584-2.576-21.113-10.591-28.165l-17.477-15.374c-.775-.682-.903-1.826-.297-2.663z" fill="#e20059"/>
      <path d="m304.925 38.492c-7.183-3.773-15.451-4.68-23.282-2.549l-20.116 5.477c-13.89 3.779-23.59 16.473-23.59 30.868v13.402c0 1.098-.893 1.991-1.991 1.991h-17.434v380.406l.509.194c2.705 1.032 5.54 1.693 8.429 1.964l72.723 6.799c.991.093 1.978.139 2.96.139 12.282 0 23.676-7.121 28.97-18.384l8.783-18.69c.355-.758 1.156-1.219 1.988-1.135l.121.011v-380.493z" fill="#f2f7fe"/>
      <path d="m281.643 35.943-.891.242v439.044l19.419 1.815c.991.093 1.978.139 2.96.139 12.282 0 23.676-7.121 28.97-18.384l8.783-18.69c.355-.758 1.156-1.219 1.988-1.135l.121.011v-380.493l-38.068-20c-7.183-3.773-15.45-4.68-23.282-2.549z" fill="#e0ecfd"/>
    </symbol>
  </defs>

  <!-- Background -->
  <rect width="2200" height="2200" fill="#edf3fb"/>

  <!-- Decorative circles -->
  <circle cx="2280" cy="-100" r="250" fill="rgba(59,130,246,0.06)"/>
  <circle cx="-120" cy="380" r="175" fill="rgba(59,130,246,0.06)"/>
  <circle cx="-60" cy="2300" r="210" fill="rgba(59,130,246,0.06)"/>
  <circle cx="2280" cy="1800" r="150" fill="rgba(59,130,246,0.06)"/>

  <!-- Logo ExportPilot (clem_dlmr.svg) -->
  <g transform="translate(60, 50) scale(0.23)">
    <g>
      <rect fill="#0c1527" x="411.61" y="452.11" width="185.23" height="85.92"/>
      <polygon fill="#0c1527" points="273.25 489.16 387.61 428.61 387.61 371.96 622.81 371.96 622.81 280.27 273.25 280.27 273.25 489.16"/>
      <polygon fill="#0c1527" points="387.61 482.68 273.25 543.24 273.25 716.07 622.81 716.07 622.81 629.14 387.61 629.14 387.61 482.68"/>
      <polygon fill="#0c1527" points="1004.98 419.82 888.23 419.82 831.05 491.15 773.87 419.82 657.12 419.82 772.22 564.54 650.76 716.07 769.35 716.07 831.05 638.5 892.74 716.07 1011.33 716.07 889.87 564.54 1004.98 419.82"/>
      <path fill="#0c1527" d="M1809.62,454.11v-34.72h-100.8v296.68h100.8v-165.12c15.69-60.9,103.34-53.28,103.34-53.28v-78.28c-64-8.44-95.33,24.56-103.34,34.72Z"/>
      <path fill="#0c1527" d="M2142.94,630.87s-15.67,16.43-44.05,12.54c-31.34-3.89-31.77-44.11-31.77-44.11v-102.07h88.1v-77.85h-88.1v-84.33h-101.23v84.33h-44.47v77.85h44.47v10.38l-.9,104.5c-.09,2.64-.12,5.38-.07,8.21v.03s0,0,0,0c.56,33.25,11.8,78.22,64.93,95.72,72.85,21.62,131.3-8.22,131.3-8.22l-18.21-76.98Z"/>
      <path fill="#0c1527" d="M1519.65,408.55c-88.79,0-160.77,70.93-160.77,158.43s71.98,158.43,160.77,158.43,160.77-70.93,160.77-158.43-71.98-158.43-160.77-158.43ZM1519.65,641.65c-41.24,0-74.67-33.43-74.67-74.67s33.43-74.67,74.67-74.67,74.67,33.43,74.67,74.67-33.43,74.67-74.67,74.67Z"/>
      <path fill="#0c1527" d="M1199.4,414.49c-31.49,0-64.81,14.7-83.78,39.18v-33.85h-91.44v413.31h91.44v-142.54c23.25,19.69,52.28,31.4,83.78,31.4,76.41,0,138.35-68.84,138.35-153.75s-61.94-153.75-138.35-153.75ZM1185.51,641.65c-37.06,0-67.1-33.9-67.1-75.72s30.04-75.72,67.1-75.72,67.1,33.9,67.1,75.72-30.04,75.72-67.1,75.72Z"/>
    </g>
    <g>
      <path fill="#4281fb" d="M3438.98,643.41c-31.34-3.89-31.77-44.11-31.77-44.11v-102.07h88.1v-77.85h-88.1v-104.35h-101.23v104.35h-44.47v77.85h44.47v10.38l-.9,104.5c-.09,2.64-.12,5.38-.07,8.21v.03s0,0,0,0c.56,33.25,11.8,78.22,64.93,95.72,72.85,21.62,131.3-8.22,131.3-8.22l-18.21-76.98s-15.67,16.43-44.05,12.54Z"/>
      <path fill="#4281fb" d="M2468.61,306.94h-229.42v408.84h112.59v-116.48h116.83c79.06,0,143.16-65.45,143.16-146.18h0c0-80.73-64.09-146.18-143.16-146.18ZM2439.81,514.17h-88.03v-123.98h88.03c33.53,0,60.71,27.75,60.71,61.99s-27.18,61.99-60.71,61.99Z"/>
      <rect fill="#4281fb" x="2653.55" y="420.76" width="103.34" height="295.03"/>
      <rect fill="#4281fb" x="2814.49" y="291.59" width="105.04" height="424.99"/>
      <ellipse fill="#4281fb" cx="2705.36" cy="325.03" rx="63.11" ry="54.2"/>
      <polygon fill="#4281fb" points="3391.97 166.87 3391.97 225.69 3521.67 225.69 3425.16 326.75 3469.74 371.14 3571.12 264.96 3571.12 377.92 3630.42 377.92 3630.42 166.87 3391.97 166.87"/>
      <path fill="#4281fb" d="M3101.65,407.5c-88.79,0-160.77,70.93-160.77,158.43s71.98,158.43,160.77,158.43,160.77-70.93,160.77-158.43-71.98-158.43-160.77-158.43ZM3101.65,640.6c-41.24,0-74.67-33.43-74.67-74.67s33.43-74.67,74.67-74.67,74.67,33.43,74.67,74.67-33.43,74.67-74.67,74.67Z"/>
    </g>
  </g>

  <!-- Badge -->
  <rect x="740" y="310" width="720" height="70" rx="35" fill="#ffffff" stroke="#e2e8f0" stroke-width="2"/>
  <text x="1100" y="355" font-size="36" font-weight="600" fill="#334155" text-anchor="middle" font-family="Inter, sans-serif">Nouveau — Suivez-nous sur LinkedIn</text>

  <!-- Title -->
  <text x="1100" y="550" font-size="120" font-weight="900" fill="#0f172a" text-anchor="middle" font-family="Inter, sans-serif">Nous sommes sur LinkedIn !</text>

  <!-- Subtitle line 1 -->
  <text x="1040" y="680" font-size="48" font-weight="700" fill="#0f172a" text-anchor="middle" font-family="Inter, sans-serif">Boostez vos ventes Export</text>
  <use href="#icon-rocket" x="1290" y="640" width="55" height="55"/>

  <!-- Subtitle line 2 -->
  <text x="1030" y="760" font-size="48" font-weight="400" fill="#475569" text-anchor="middle" font-family="Inter, sans-serif">Ensemble faisons rayonner les sociétés françaises à l'international</text>
  <use href="#icon-france" x="1490" y="720" width="55" height="55"/>

  <!-- Service cards - Row 1 -->
  <!-- Card 1: Présence digitale -->
  <rect x="200" y="850" width="520" height="310" rx="28" fill="#ffffff" filter="url(#shadow)"/>
  <use href="#icon-vision" x="410" y="880" width="100" height="100"/>
  <text x="460" y="1020" font-size="36" font-weight="800" fill="#0f172a" text-anchor="middle" font-family="Inter, sans-serif">Présence digitale</text>
  <text x="460" y="1065" font-size="28" fill="#64748b" text-anchor="middle" font-family="Inter, sans-serif">Landing page traduite pour</text>
  <text x="460" y="1100" font-size="28" fill="#64748b" text-anchor="middle" font-family="Inter, sans-serif">chaque marché cible</text>

  <!-- Card 2: Prospection ciblée -->
  <rect x="740" y="850" width="520" height="310" rx="28" fill="#ffffff"/>
  <use href="#icon-target" x="950" y="880" width="100" height="100"/>
  <text x="1000" y="1020" font-size="36" font-weight="800" fill="#0f172a" text-anchor="middle" font-family="Inter, sans-serif">Prospection ciblée</text>
  <text x="1000" y="1065" font-size="28" fill="#64748b" text-anchor="middle" font-family="Inter, sans-serif">Séquences multicanales pour</text>
  <text x="1000" y="1100" font-size="28" fill="#64748b" text-anchor="middle" font-family="Inter, sans-serif">toucher vos acheteurs</text>

  <!-- Card 3: Veille concurrentielle -->
  <rect x="1280" y="850" width="520" height="310" rx="28" fill="#ffffff"/>
  <use href="#icon-loupe" x="1490" y="880" width="100" height="100"/>
  <text x="1540" y="1020" font-size="36" font-weight="800" fill="#0f172a" text-anchor="middle" font-family="Inter, sans-serif">Veille concurrentielle</text>
  <text x="1540" y="1065" font-size="28" fill="#64748b" text-anchor="middle" font-family="Inter, sans-serif">Suivez vos concurrents</text>
  <text x="1540" y="1100" font-size="28" fill="#64748b" text-anchor="middle" font-family="Inter, sans-serif">en temps réel</text>

  <!-- Service cards - Row 2 -->
  <!-- Card 4: Appels d'offres -->
  <rect x="200" y="1190" width="520" height="310" rx="28" fill="#ffffff"/>
  <use href="#icon-exam" x="410" y="1220" width="100" height="100"/>
  <text x="460" y="1360" font-size="36" font-weight="800" fill="#0f172a" text-anchor="middle" font-family="Inter, sans-serif">Appels d'offres</text>
  <text x="460" y="1405" font-size="28" fill="#64748b" text-anchor="middle" font-family="Inter, sans-serif">Détectez les opportunités</text>
  <text x="460" y="1440" font-size="28" fill="#64748b" text-anchor="middle" font-family="Inter, sans-serif">avant vos concurrents</text>

  <!-- Card 5: Actualités -->
  <rect x="740" y="1190" width="520" height="310" rx="28" fill="#ffffff"/>
  <use href="#icon-message" x="950" y="1220" width="100" height="100"/>
  <text x="1000" y="1360" font-size="36" font-weight="800" fill="#0f172a" text-anchor="middle" font-family="Inter, sans-serif">Actualités</text>
  <text x="1000" y="1405" font-size="28" fill="#64748b" text-anchor="middle" font-family="Inter, sans-serif">Restez informé des tendances</text>
  <text x="1000" y="1440" font-size="28" fill="#64748b" text-anchor="middle" font-family="Inter, sans-serif">de votre secteur</text>

  <!-- Card 6: Présence terrain -->
  <rect x="1280" y="1190" width="520" height="310" rx="28" fill="#ffffff"/>
  <use href="#icon-flag" x="1490" y="1220" width="100" height="100"/>
  <text x="1540" y="1360" font-size="36" font-weight="800" fill="#0f172a" text-anchor="middle" font-family="Inter, sans-serif">Présence terrain</text>
  <text x="1540" y="1405" font-size="28" fill="#64748b" text-anchor="middle" font-family="Inter, sans-serif">Salons, missions et rencontres</text>
  <text x="1540" y="1440" font-size="28" fill="#64748b" text-anchor="middle" font-family="Inter, sans-serif">sur vos marchés</text>

  <!-- CTA -->
  <text x="1100" y="1660" font-size="44" font-weight="700" fill="#0f172a" text-anchor="middle" font-family="Inter, sans-serif">Découvrez notre dispositif complet sur <tspan fill="#2563eb" text-decoration="underline">exportpilot.fr</tspan></text>
</svg>
