<?xml version="1.0" encoding="UTF-8"?>
<svg id="Layer_1" xmlns="http://www.w3.org/2000/svg" version="1.1" viewBox="0 0 3903.67 1000">
  <!-- Generator: Adobe Illustrator 29.3.0, SVG Export Plug-In . SVG Version: 2.1.0 Build 146)  -->
  <defs>
    <style>
      .st0 {
        fill: #0c1527;
      }

      .st1 {
        fill: #4281fb;
      }
    </style>
  </defs>
  <g>
    <rect class="st0" x="411.61" y="452.11" width="185.23" height="85.92"/>
    <polygon class="st0" points="273.25 489.16 387.61 428.61 387.61 371.96 622.81 371.96 622.81 280.27 273.25 280.27 273.25 489.16"/>
    <polygon class="st0" points="387.61 482.68 273.25 543.24 273.25 716.07 622.81 716.07 622.81 629.14 387.61 629.14 387.61 482.68"/>
    <polygon class="st0" points="1004.98 419.82 888.23 419.82 831.05 491.15 773.87 419.82 657.12 419.82 772.22 564.54 650.76 716.07 769.35 716.07 831.05 638.5 892.74 716.07 1011.33 716.07 889.87 564.54 1004.98 419.82"/>
    <path class="st0" d="M1809.62,454.11v-34.72h-100.8v296.68h100.8v-165.12c15.69-60.9,103.34-53.28,103.34-53.28v-78.28c-64-8.44-95.33,24.56-103.34,34.72Z"/>
    <path class="st0" d="M2142.94,630.87s-15.67,16.43-44.05,12.54c-31.34-3.89-31.77-44.11-31.77-44.11v-102.07h88.1v-77.85h-88.1v-84.33h-101.23v84.33h-44.47v77.85h44.47v10.38l-.9,104.5c-.09,2.64-.12,5.38-.07,8.21v.03s0,0,0,0c.56,33.25,11.8,78.22,64.93,95.72,72.85,21.62,131.3-8.22,131.3-8.22l-18.21-76.98Z"/>
    <path class="st0" d="M1519.65,408.55c-88.79,0-160.77,70.93-160.77,158.43s71.98,158.43,160.77,158.43,160.77-70.93,160.77-158.43-71.98-158.43-160.77-158.43ZM1519.65,641.65c-41.24,0-74.67-33.43-74.67-74.67s33.43-74.67,74.67-74.67,74.67,33.43,74.67,74.67-33.43,74.67-74.67,74.67Z"/>
    <path class="st0" d="M1199.4,414.49c-31.49,0-64.81,14.7-83.78,39.18v-33.85h-91.44v413.31h91.44v-142.54c23.25,19.69,52.28,31.4,83.78,31.4,76.41,0,138.35-68.84,138.35-153.75s-61.94-153.75-138.35-153.75ZM1185.51,641.65c-37.06,0-67.1-33.9-67.1-75.72s30.04-75.72,67.1-75.72,67.1,33.9,67.1,75.72-30.04,75.72-67.1,75.72Z"/>
  </g>
  <g>
    <path class="st1" d="M3438.98,643.41c-31.34-3.89-31.77-44.11-31.77-44.11v-102.07h88.1v-77.85h-88.1v-104.35h-101.23v104.35h-44.47v77.85h44.47v10.38l-.9,104.5c-.09,2.64-.12,5.38-.07,8.21v.03s0,0,0,0c.56,33.25,11.8,78.22,64.93,95.72,72.85,21.62,131.3-8.22,131.3-8.22l-18.21-76.98s-15.67,16.43-44.05,12.54Z"/>
    <path class="st1" d="M2468.61,306.94h-229.42v408.84h112.59v-116.48h116.83c79.06,0,143.16-65.45,143.16-146.18h0c0-80.73-64.09-146.18-143.16-146.18ZM2439.81,514.17h-88.03v-123.98h88.03c33.53,0,60.71,27.75,60.71,61.99s-27.18,61.99-60.71,61.99Z"/>
    <rect class="st1" x="2653.55" y="420.76" width="103.34" height="295.03"/>
    <rect class="st1" x="2814.49" y="291.59" width="105.04" height="424.99"/>
    <ellipse class="st1" cx="2705.36" cy="325.03" rx="63.11" ry="54.2"/>
    <polygon class="st1" points="3391.97 166.87 3391.97 225.69 3521.67 225.69 3425.16 326.75 3469.74 371.14 3571.12 264.96 3571.12 377.92 3630.42 377.92 3630.42 166.87 3391.97 166.87"/>
    <path class="st1" d="M3101.65,407.5c-88.79,0-160.77,70.93-160.77,158.43s71.98,158.43,160.77,158.43,160.77-70.93,160.77-158.43-71.98-158.43-160.77-158.43ZM3101.65,640.6c-41.24,0-74.67-33.43-74.67-74.67s33.43-74.67,74.67-74.67,74.67,33.43,74.67,74.67-33.43,74.67-74.67,74.67Z"/>
  </g>
</svg>