<svg id="Capa_1" enable-background="new 0 0 512 512" height="512" viewBox="0 0 512 512" width="512" xmlns="http://www.w3.org/2000/svg"><g><path d="m270.951 105c0 27.299-10.201 53.099-29.099 72.599-19.801 21-30.901 48.3-30.901 77.401l-45 30-.3-.3-45-29.7.3-1.8c0-27.301-11.1-54.6-30.901-75.901-23.699-24.9-33.6-58.799-26.999-93.299 8.101-41.7 41.7-74.7 83.399-82.2 6.301-1.201 12.902-1.8 19.2-1.8 24.901 0 48.6 8.699 67.8 24.6 23.701 19.799 37.501 49.199 37.501 80.4z" fill="#f2fbff"/><g id="Baby_Cutlery_3_"><path d="m233.151 432.499-22.2-177.499h-90.3l-22.2 180.799c-4.85 41.219 27.29 76.201 67.2 76.201 42.791 0 72.476-39.077 67.5-79.501zm-67.2 19.501c-8.284 0-15-6.716-15-15s6.716-15 15-15 15 6.716 15 15-6.716 15-15 15z" fill="#66b3ff"/><path d="m443.151 432.499-22.2-177.499-45-30-45.3 30c-.312 3.024-21.158 175.343-22.2 180.2-4.813 41.506 26.778 76.8 67.2 76.8 42.525 0 72.515-38.762 67.5-79.501zm-67.2 19.501c-8.284 0-15-6.716-15-15s6.716-15 15-15 15 6.716 15 15-6.716 15-15 15z" fill="#ffdf40"/><path d="m443.151 432.499-22.2-177.499-45-30-.3.2v196.815c.101-.002.199-.015.3-.015 8.284 0 15 6.716 15 15s-6.716 15-15 15c-.101 0-.199-.013-.3-.015v60.015c42.524 0 72.515-38.763 67.5-79.501z" fill="#ffbe40"/><path d="m435.951 0c-8.291 0-15 6.709-15 15v105h-30v-105c0-8.291-6.709-15-15-15s-15 6.709-15 15v105h-30v-105c0-8.291-6.709-15-15-15s-15 6.709-15 15v137.699c0 22.2 6.301 44.101 18.6 63.301 7.5 11.699 11.4 25.199 11.4 37.2 0 0 0 .599-.3 1.8h90.3c0-13.801 3.9-27.301 11.4-39 12.299-19.2 18.6-41.102 18.6-63.301v-137.699c0-8.291-6.709-15-15-15z" fill="#f2fbff"/><path d="m435.951 0c-8.291 0-15 6.709-15 15v105h-30v-105c0-8.291-6.709-15-15-15-.106 0-.194.059-.3.06v254.94h45.3c0-13.801 3.9-27.301 11.4-39 12.299-19.2 18.6-41.102 18.6-63.301v-137.699c0-8.291-6.709-15-15-15z" fill="#d9ecff"/></g><g><path d="m270.951 105c0 27.299-10.201 53.099-29.099 72.599-19.801 21-30.901 48.3-30.901 77.401l-45 30-.3-.3v-284.7c24.901 0 48.6 8.699 67.8 24.6 23.7 19.799 37.5 49.199 37.5 80.4z" fill="#d9ecff"/><path d="m233.151 432.499-22.2-177.499h-45.3v167.015c.101-.002.199-.015.3-.015 8.284 0 15 6.716 15 15s-6.716 15-15 15c-.101 0-.199-.013-.3-.015v60.015c42.792 0 72.477-39.077 67.5-79.501z" fill="#5990ff"/></g></g></svg>