<svg id="Capa_1" enable-background="new 0 0 511.5 511.5" height="512" viewBox="0 0 511.5 511.5" width="512" xmlns="http://www.w3.org/2000/svg"><g><path d="m88.825 277.046-9.053 9.119v157.755l10.853 8.949h158.925l9.382-8.949v-157.755l-8.107-9.119z" fill="#e0f4ff"/><path d="m169.352 277.046v175.823h84.092l5.488-8.949v-157.755l-5.741-9.119z" fill="#bbdcff"/><path d="m79.772 472.713c0 21.111 17.176 38.287 38.288 38.287h102.584c21.111 0 38.287-17.176 38.287-38.287v-28.793h-179.159z" fill="#5c5454"/><path d="m220.645 511c21.111 0 38.287-17.176 38.287-38.287v-28.793h-89.58v67.08z" fill="#463f3f"/><path d="m258.932 243.44c0-33.151-19.916-63.023-50.086-75.95v-108.611c0-4.143-3.357-7.5-7.5-7.5h-63.983c-4.143 0-7.5 3.357-7.5 7.5v108.609c-30.172 12.926-50.09 42.8-50.09 75.952v42.725h179.159z" fill="#5c5454"/><path d="m258.932 243.44c0-33.151-19.916-63.023-50.086-75.95v-108.611c0-4.143-3.357-7.5-7.5-7.5h-31.994v234.786h89.58z" fill="#463f3f"/><path d="m208.846 66.879v-43.234c0-13.039-10.607-23.645-23.644-23.645h-31.699c-13.038 0-23.645 10.606-23.645 23.645v43.234z" fill="#ff637b"/><path d="m208.846 23.645c0-13.039-10.607-23.645-23.644-23.645h-15.85v66.879h39.494z" fill="#e63950"/><g><path d="m389.875 356.075 41.853-54.91v-51.711c0-8.284-6.716-15-15-15h-95.296c-8.284 0-15 6.716-15 15v51.711l31.526 56.302 16.121 57.883v66.15h-31.59c-8.284 0-15 6.716-15 15s6.716 15 15 15h93.181c8.284 0 15-6.716 15-15s-6.716-15-15-15h-31.591v-66.149z" fill="#e0f4ff"/><path d="m389.829 353.18 41.899-52.015v-51.711c0-8.284-6.716-15-15-15h-47.648v277.046h46.59c8.284 0 15-6.716 15-15s-6.716-15-15-15h-31.591v-66.149z" fill="#bbdcff"/><path d="m306.432 301.165v53.365c0 34.545 28.104 62.648 62.647 62.648l41.271-60.878-41.27-55.135z" fill="#ff637b"/><path d="m369.08 301.165v116.013c34.545 0 62.648-28.104 62.648-62.648v-53.365z" fill="#e63950"/></g></g></svg>